<?xml version="1.0" encoding="UTF-8" standalone="no"?>
<!-- Created with Inkscape (http://www.inkscape.org/) -->

<svg
   xmlns:dc="http://purl.org/dc/elements/1.1/"
   xmlns:cc="http://creativecommons.org/ns#"
   xmlns:rdf="http://www.w3.org/1999/02/22-rdf-syntax-ns#"
   xmlns:svg="http://www.w3.org/2000/svg"
   xmlns="http://www.w3.org/2000/svg"
   version="1.1"
   width="40"
   height="40"
   id="svg3343">
  <defs
     id="defs3345" />
  <metadata
     id="metadata3348">
    <rdf:RDF>
      <cc:Work
         rdf:about="">
        <dc:format>image/svg+xml</dc:format>
        <dc:type
           rdf:resource="http://purl.org/dc/dcmitype/StillImage" />
        <dc:title></dc:title>
      </cc:Work>
    </rdf:RDF>
  </metadata>
  <g
     transform="translate(0,-1012.3622)"
     id="layer1">
    <g
       transform="matrix(1.25,0,0,-1.25,13.566875,1020.046)"
       id="g3068">
      <path
         d="M 0,0 C 0,1.537 1.247,2.785 2.785,2.785 4.322,2.785 5.569,1.537 5.569,0 5.569,-1.539 4.322,-2.786 2.785,-2.786 1.247,-2.786 0,-1.539 0,0 m 12.993,-2.7 c 0,4.333 -3.512,7.847 -7.846,7.847 -4.335,0 -7.847,-3.514 -7.847,-7.847 0,-3.72 2.59,-6.827 6.063,-7.636 l 0.924,-12.606 c -2.586,-0.075 -4.568,-0.468 -4.568,-0.949 0,-0.531 2.43,-0.962 5.427,-0.962 2.997,0 5.428,0.431 5.428,0.962 0,0.481 -1.981,0.874 -4.568,0.949 l 0.924,12.606 c 3.473,0.809 6.063,3.916 6.063,7.636"
         id="path3070"
         style="fill:#555455;fill-opacity:1;fill-rule:nonzero;stroke:none" />
    </g>
  </g>
</svg>
