<?xml version="1.0" encoding="UTF-8" standalone="no"?>
<!-- Created with Inkscape (http://www.inkscape.org/) -->

<svg
   xmlns:dc="http://purl.org/dc/elements/1.1/"
   xmlns:cc="http://creativecommons.org/ns#"
   xmlns:rdf="http://www.w3.org/1999/02/22-rdf-syntax-ns#"
   xmlns:svg="http://www.w3.org/2000/svg"
   xmlns="http://www.w3.org/2000/svg"
   version="1.1"
   width="36"
   height="36"
   id="svg3343">
  <defs
     id="defs3345" />
  <metadata
     id="metadata3348">
    <rdf:RDF>
      <cc:Work
         rdf:about="">
        <dc:format>image/svg+xml</dc:format>
        <dc:type
           rdf:resource="http://purl.org/dc/dcmitype/StillImage" />
        <dc:title></dc:title>
      </cc:Work>
    </rdf:RDF>
  </metadata>
  <g
     transform="translate(0,-1016.3622)"
     id="layer1">
    <g
       transform="matrix(1.25,0,0,-1.25,33.928125,1018.0895)"
       id="g3034">
      <path
         d="m 0,0 c 0,0 -7.662,1.916 -11.993,-4.998 l 0.832,0 L 0,0 z M -13.492,-4.998 C -17.823,1.916 -25.486,0 -25.486,0 l 11.162,-4.998 0.832,0 z m 3.913,-1.289 0,-19.494 11.406,5.411 0.024,19.289 -11.43,-5.206 z m -5.161,-19.993 3.898,0 0,19.601 -3.898,0 0,-19.601 z m -12.572,5.91 11.406,-5.411 0,19.494 -11.43,5.206 0.024,-19.289 z"
         id="path3036"
         style="fill:#494a4a;fill-opacity:1;fill-rule:evenodd;stroke:none" />
    </g>
  </g>
</svg>
