<?xml version="1.0" encoding="UTF-8" standalone="no"?>
<!-- Created with Inkscape (http://www.inkscape.org/) -->

<svg
   xmlns:dc="http://purl.org/dc/elements/1.1/"
   xmlns:cc="http://creativecommons.org/ns#"
   xmlns:rdf="http://www.w3.org/1999/02/22-rdf-syntax-ns#"
   xmlns:svg="http://www.w3.org/2000/svg"
   xmlns="http://www.w3.org/2000/svg"
   version="1.1"
   width="40"
   height="40"
   id="svg3343">
  <defs
     id="defs3345" />
  <metadata
     id="metadata3348">
    <rdf:RDF>
      <cc:Work
         rdf:about="">
        <dc:format>image/svg+xml</dc:format>
        <dc:type
           rdf:resource="http://purl.org/dc/dcmitype/StillImage" />
        <dc:title></dc:title>
      </cc:Work>
    </rdf:RDF>
  </metadata>
  <g
     transform="translate(0,-1012.3622)"
     id="layer1">
    <g
       transform="matrix(1.25,0,0,-1.25,19.96875,1042.206)"
       id="g3114">
      <path
         d="m 0,0 c -0.914,0 -1.654,-0.742 -1.654,-1.655 0,-0.914 0.74,-1.654 1.654,-1.654 0.914,0 1.653,0.74 1.653,1.654 C 1.653,-0.742 0.914,0 0,0 m 0.078,19.059 c -5.887,0 -11.212,-2.402 -15.053,-6.278 l 2.699,-2.649 c 3.154,3.178 7.524,5.147 12.354,5.147 4.803,0 9.151,-1.946 12.3,-5.09 l 2.647,2.697 C 11.194,16.7 5.912,19.059 0.078,19.059 M -10.141,8.036 -7.744,5.683 c 2.001,2.004 4.767,3.243 7.822,3.243 3.07,0 5.846,-1.252 7.849,-3.272 l 2.354,2.398 c -2.61,2.616 -6.217,4.234 -10.203,4.234 -3.994,0 -7.608,-1.625 -10.219,-4.25 m 4.497,-4.414 2.475,-2.429 c 0.838,0.819 1.983,1.326 3.247,1.326 1.322,0 2.512,-0.556 3.359,-1.44 l 2.43,2.475 c -1.472,1.5 -3.521,2.431 -5.789,2.431 -2.233,0 -4.255,-0.902 -5.722,-2.363"
         id="path3116"
         style="fill:#848485;fill-opacity:1;fill-rule:nonzero;stroke:none" />
    </g>
  </g>
</svg>
