<?xml version="1.0" encoding="UTF-8" standalone="no"?>
<!-- Created with Inkscape (http://www.inkscape.org/) -->

<svg
   xmlns:dc="http://purl.org/dc/elements/1.1/"
   xmlns:cc="http://creativecommons.org/ns#"
   xmlns:rdf="http://www.w3.org/1999/02/22-rdf-syntax-ns#"
   xmlns:svg="http://www.w3.org/2000/svg"
   xmlns="http://www.w3.org/2000/svg"
   version="1.1"
   width="26"
   height="26"
   id="svg3343">
  <defs
     id="defs3345" />
  <metadata
     id="metadata3348">
    <rdf:RDF>
      <cc:Work
         rdf:about="">
        <dc:format>image/svg+xml</dc:format>
        <dc:type
           rdf:resource="http://purl.org/dc/dcmitype/StillImage" />
        <dc:title></dc:title>
      </cc:Work>
    </rdf:RDF>
  </metadata>
  <g
     transform="translate(0,-1026.3622)"
     id="layer1">
    <g
       transform="matrix(1.25,0,0,-1.25,21.534375,1039.3622)"
       id="g3138">
      <path
         d="m 0,0 -3.172,0 0,-8.53 -3.655,0 0,8.53 -1.762,0 0,2.79 1.762,0 0,1.813 c 0,2.462 1.062,3.927 3.957,3.927 l 3.336,0 0,-3.019 -2.725,0 C -3.068,5.512 -3.168,5.089 -3.168,4.302 L -3.172,2.79 0.484,2.79 0,0 z m -0.328,9.748 -12.998,0 c -1.787,0 -3.25,-1.462 -3.25,-3.25 l 0,-12.996 c 0,-1.789 1.463,-3.25 3.25,-3.25 l 12.998,0 c 1.787,0 3.249,1.461 3.249,3.25 l 0,12.996 c 0,1.788 -1.462,3.25 -3.249,3.25"
         id="path3140"
         style="fill:#858586;fill-opacity:1;fill-rule:nonzero;stroke:none" />
    </g>
  </g>
</svg>
