<?xml version="1.0" encoding="UTF-8" standalone="no"?>
<!-- Created with Inkscape (http://www.inkscape.org/) -->

<svg
   xmlns:dc="http://purl.org/dc/elements/1.1/"
   xmlns:cc="http://creativecommons.org/ns#"
   xmlns:rdf="http://www.w3.org/1999/02/22-rdf-syntax-ns#"
   xmlns:svg="http://www.w3.org/2000/svg"
   xmlns="http://www.w3.org/2000/svg"
   version="1.1"
   width="26"
   height="26"
   id="svg3343">
  <defs
     id="defs3345" />
  <metadata
     id="metadata3348">
    <rdf:RDF>
      <cc:Work
         rdf:about="">
        <dc:format>image/svg+xml</dc:format>
        <dc:type
           rdf:resource="http://purl.org/dc/dcmitype/StillImage" />
        <dc:title></dc:title>
      </cc:Work>
    </rdf:RDF>
  </metadata>
  <g
     transform="translate(0,-1026.3622)"
     id="layer1">
    <g
       transform="matrix(1.25,0,0,-1.25,18.33125,1043.1697)"
       id="g3150">
      <path
         d="m 0,0 c -1.682,0 -3.046,1.364 -3.046,3.046 0,1.682 1.364,3.047 3.046,3.047 1.682,0 3.046,-1.365 3.046,-3.047 C 3.046,1.364 1.683,0 0,0 m -8.53,0 c -1.682,0 -3.046,1.364 -3.046,3.046 0,1.682 1.364,3.047 3.046,3.047 1.682,0 3.047,-1.365 3.047,-3.047 C -5.483,1.364 -6.848,0 -8.53,0 m 10.765,12.794 -12.998,0 c -1.788,0 -3.25,-1.462 -3.25,-3.249 l 0,-12.997 c 0,-1.789 1.462,-3.25 3.25,-3.25 l 12.998,0 c 1.786,0 3.248,1.462 3.248,3.25 l 0,12.997 c 0,1.787 -1.462,3.249 -3.248,3.249"
         id="path3152"
         style="fill:#858586;fill-opacity:1;fill-rule:nonzero;stroke:none" />
    </g>
  </g>
</svg>
