<?xml version="1.0" encoding="UTF-8" standalone="no"?>
<!-- Created with Inkscape (http://www.inkscape.org/) -->

<svg
   xmlns:dc="http://purl.org/dc/elements/1.1/"
   xmlns:cc="http://creativecommons.org/ns#"
   xmlns:rdf="http://www.w3.org/1999/02/22-rdf-syntax-ns#"
   xmlns:svg="http://www.w3.org/2000/svg"
   xmlns="http://www.w3.org/2000/svg"
   version="1.1"
   width="40"
   height="40"
   id="svg3343">
  <defs
     id="defs3345" />
  <metadata
     id="metadata3348">
    <rdf:RDF>
      <cc:Work
         rdf:about="">
        <dc:format>image/svg+xml</dc:format>
        <dc:type
           rdf:resource="http://purl.org/dc/dcmitype/StillImage" />
        <dc:title></dc:title>
      </cc:Work>
    </rdf:RDF>
  </metadata>
  <g
     transform="translate(0,-1012.3622)"
     id="layer1">
    <g
       transform="matrix(1.25,0,0,-1.25,20.1375,1044.2928)"
       id="g3058">
      <path
         d="m 0,0 c -5.271,-0.062 -9.594,4.162 -9.655,9.434 -0.061,5.271 4.163,9.594 9.434,9.654 C 5.051,19.15 9.374,14.925 9.435,9.654 9.496,4.383 5.272,0.061 0,0 m 14.657,11.186 -3.514,0.752 c -0.103,0.484 -0.234,0.954 -0.394,1.412 l 2.609,2.47 c 0.102,0.06 0.135,0.192 0.076,0.294 l -1.282,2.161 c -0.06,0.101 -0.192,0.134 -0.294,0.074 L 8.435,17.243 C 8.109,17.608 7.76,17.946 7.39,18.265 l 1.026,3.449 c 0.057,0.102 0.022,0.232 -0.082,0.292 l -2.19,1.23 C 6.041,23.293 5.911,23.256 5.853,23.154 L 3.443,20.486 C 2.982,20.637 2.508,20.758 2.024,20.849 L 1.189,24.346 C 1.187,24.464 1.09,24.56 0.972,24.559 l -2.512,-0.03 c -0.118,-0.003 -0.212,-0.1 -0.211,-0.217 l -0.755,-3.516 c -0.482,-0.102 -0.952,-0.232 -1.409,-0.394 l -2.471,2.611 c -0.061,0.1 -0.192,0.134 -0.294,0.074 l -2.161,-1.28 c -0.101,-0.061 -0.135,-0.193 -0.074,-0.294 l 1.105,-3.425 c -0.362,-0.324 -0.704,-0.673 -1.022,-1.043 l -3.448,1.024 c -0.103,0.059 -0.233,0.022 -0.292,-0.082 l -1.23,-2.188 c -0.058,-0.105 -0.021,-0.234 0.082,-0.292 l 2.666,-2.41 c -0.149,-0.461 -0.271,-0.935 -0.361,-1.42 l -3.497,-0.834 c -0.118,-10e-4 -0.213,-0.098 -0.212,-0.216 l 0.03,-2.513 c 10e-4,-0.117 0.098,-0.212 0.217,-0.21 l 3.514,-0.756 c 0.102,-0.482 0.235,-0.953 0.394,-1.411 l -2.609,-2.469 c -0.102,-0.06 -0.136,-0.193 -0.076,-0.293 l 1.282,-2.161 c 0.061,-0.103 0.191,-0.137 0.293,-0.076 l 3.423,1.107 C -8.329,1.483 -7.979,1.141 -7.61,0.822 l -1.026,-3.447 c -0.058,-0.103 -0.021,-0.235 0.081,-0.292 l 2.191,-1.23 c 0.103,-0.059 0.233,-0.022 0.291,0.081 l 2.41,2.666 c 0.461,-0.15 0.935,-0.27 1.419,-0.362 l 0.835,-3.497 c 0.001,-0.117 0.099,-0.213 0.217,-0.211 l 2.511,0.03 c 0.118,0.001 0.213,0.097 0.212,0.215 l 0.754,3.516 c 0.483,0.103 0.953,0.234 1.41,0.394 l 2.471,-2.61 C 6.227,-4.026 6.357,-4.06 6.46,-3.999 l 2.16,1.28 c 0.102,0.06 0.135,0.193 0.075,0.294 L 7.59,0.999 C 7.952,1.325 8.294,1.675 8.611,2.044 L 12.059,1.018 C 12.162,0.96 12.293,0.997 12.351,1.1 l 1.231,2.19 C 13.64,3.393 13.603,3.523 13.5,3.581 L 10.834,5.99 c 0.15,0.461 0.27,0.935 0.361,1.419 l 3.497,0.837 c 0.118,10e-4 0.213,0.099 0.212,0.216 l -0.029,2.512 c -0.002,0.117 -0.099,0.212 -0.218,0.212 M -0.08,6.859 c -1.482,-0.017 -2.698,1.171 -2.715,2.654 -0.017,1.482 1.17,2.699 2.653,2.716 C 1.342,12.247 2.557,11.058 2.574,9.574 2.592,8.093 1.404,6.876 -0.08,6.859 m -0.122,10.592 c -4.367,-0.051 -7.867,-3.632 -7.816,-8 0.05,-4.366 3.632,-7.866 7.999,-7.815 4.368,0.051 7.867,3.633 7.817,7.999 -0.051,4.367 -3.632,7.867 -8,7.816"
         id="path3060"
         style="fill:#a6a5a6;fill-opacity:1;fill-rule:nonzero;stroke:none" />
    </g>
  </g>
</svg>
