<?xml version="1.0" encoding="UTF-8" standalone="no"?>
<!-- Created with Inkscape (http://www.inkscape.org/) -->

<svg
   xmlns:dc="http://purl.org/dc/elements/1.1/"
   xmlns:cc="http://creativecommons.org/ns#"
   xmlns:rdf="http://www.w3.org/1999/02/22-rdf-syntax-ns#"
   xmlns:svg="http://www.w3.org/2000/svg"
   xmlns="http://www.w3.org/2000/svg"
   version="1.1"
   width="26"
   height="26"
   id="svg3343">
  <defs
     id="defs3345" />
  <metadata
     id="metadata3348">
    <rdf:RDF>
      <cc:Work
         rdf:about="">
        <dc:format>image/svg+xml</dc:format>
        <dc:type
           rdf:resource="http://purl.org/dc/dcmitype/StillImage" />
        <dc:title></dc:title>
      </cc:Work>
    </rdf:RDF>
  </metadata>
  <g
     transform="translate(0,-1026.3622)"
     id="layer1">
    <g
       transform="matrix(1.25,0,0,-1.25,11.655,1049.8541)"
       id="g3134">
      <path
         d="m 0,0 c -0.287,1.12 -1.304,1.675 -2.721,2.658 -0.515,0.166 -1.083,0.264 -1.692,0.271 -1.706,0.018 -3.296,-0.666 -4.193,-1.684 0.303,-1.479 1.619,-2.6 3.184,-2.6 l 5.454,0 c 0.034,0.212 0.051,0.431 0.051,0.656 C 0.083,-0.46 0.054,-0.227 0,0 m -8.606,1.249 c -0.022,0.104 -0.038,0.209 -0.049,0.316 0.01,-0.107 0.027,-0.212 0.049,-0.316 m 3.473,2.31 c 0.412,0 0.788,0.01 1.179,0.01 -0.516,0.502 -0.926,1.116 -0.926,1.873 0,0.45 0.144,0.882 0.346,1.266 C -4.74,6.694 -4.949,6.69 -5.165,6.69 c -1.416,0 -2.618,0.458 -3.507,1.216 l 0,-1.281 0,-3.84 c 1.018,0.483 2.226,0.774 3.539,0.774 m 15.957,9.709 0,1.624 c 0,1.787 -1.461,3.25 -3.249,3.25 l -12.997,0 c -1.757,0 -3.199,-1.414 -3.247,-3.16 1.111,0.979 2.653,1.796 4.243,1.796 l 6.802,0 -1.522,-1.288 -2.157,0 C 0.128,14.942 0.89,13.279 0.89,11.574 0.89,10.141 0.093,8.909 -1.031,8.033 -2.128,7.178 -2.337,6.82 -2.337,6.093 c 0,-0.62 1.176,-1.675 1.79,-2.109 1.797,-1.267 2.379,-2.443 2.379,-4.406 0,-0.313 -0.039,-0.626 -0.116,-0.933 l 5.859,0 c 1.788,0 3.249,1.462 3.249,3.25 l 0,10.154 -3.655,0 0,-3.656 -1.219,0 0,3.656 -3.655,0 0,1.219 3.655,0 0,3.655 1.219,0 0,-3.655 3.655,0 z M -4.18,7.381 c 1.751,-0.052 2.926,1.766 2.624,4.059 -0.303,2.294 -1.968,4.135 -3.72,4.188 -1.752,0.052 -2.926,-1.704 -2.625,-3.999 0.302,-2.293 1.968,-4.195 3.721,-4.248 M -8.656,1.584 C -8.662,1.632 -8.665,1.68 -8.668,1.728 -8.665,1.68 -8.661,1.632 -8.656,1.584"
         id="path3136"
         style="fill:#858586;fill-opacity:1;fill-rule:nonzero;stroke:none" />
    </g>
  </g>
</svg>
