<?xml version="1.0" encoding="UTF-8" standalone="no"?>
<!-- Created with Inkscape (http://www.inkscape.org/) -->

<svg
   xmlns:dc="http://purl.org/dc/elements/1.1/"
   xmlns:cc="http://creativecommons.org/ns#"
   xmlns:rdf="http://www.w3.org/1999/02/22-rdf-syntax-ns#"
   xmlns:svg="http://www.w3.org/2000/svg"
   xmlns="http://www.w3.org/2000/svg"
   version="1.1"
   width="40"
   height="40"
   id="svg3343">
  <defs
     id="defs3345" />
  <metadata
     id="metadata3348">
    <rdf:RDF>
      <cc:Work
         rdf:about="">
        <dc:format>image/svg+xml</dc:format>
        <dc:type
           rdf:resource="http://purl.org/dc/dcmitype/StillImage" />
        <dc:title></dc:title>
      </cc:Work>
    </rdf:RDF>
  </metadata>
  <g
     transform="translate(0,-1012.3622)"
     id="layer1">
    <g
       transform="matrix(0.93463719,0,0,1,1.3072562,-10.024725)"
       id="g3652">
      <g
         transform="matrix(1.25,0,0,-1.25,41.25,1030.37)"
         id="g3076">
        <path
           d="m 0,0 c 0,-1.105 -0.895,-2 -2,-2 l -30,0 c -1.105,0 -2,0.895 -2,2 l 0,0.773 c 0,1.105 0.895,2 2,2 l 30,0 c 1.105,0 2,-0.895 2,-2 L 0,0 z"
           id="path3078"
           style="fill:#a6a5a6;fill-opacity:1;fill-rule:nonzero;stroke:none" />
      </g>
      <g
         transform="matrix(1.25,0,0,-1.25,41.25,1042.8701)"
         id="g3080">
        <path
           d="m 0,0 c 0,-1.105 -0.895,-2 -2,-2 l -30,0 c -1.105,0 -2,0.895 -2,2 l 0,0.773 c 0,1.105 0.895,2 2,2 l 30,0 c 1.105,0 2,-0.895 2,-2 L 0,0 z"
           id="path3082"
           style="fill:#a6a5a6;fill-opacity:1;fill-rule:nonzero;stroke:none" />
      </g>
      <g
         transform="matrix(1.25,0,0,-1.25,41.25,1055.3701)"
         id="g3084">
        <path
           d="m 0,0 c 0,-1.105 -0.895,-2 -2,-2 l -30,0 c -1.105,0 -2,0.895 -2,2 l 0,0.773 c 0,1.105 0.895,2 2,2 l 30,0 c 1.105,0 2,-0.895 2,-2 L 0,0 z"
           id="path3086"
           style="fill:#a6a5a6;fill-opacity:1;fill-rule:nonzero;stroke:none" />
      </g>
    </g>
  </g>
</svg>
