<?xml version="1.0" encoding="UTF-8" standalone="no"?>
<!-- Created with Inkscape (http://www.inkscape.org/) -->

<svg
   xmlns:dc="http://purl.org/dc/elements/1.1/"
   xmlns:cc="http://creativecommons.org/ns#"
   xmlns:rdf="http://www.w3.org/1999/02/22-rdf-syntax-ns#"
   xmlns:svg="http://www.w3.org/2000/svg"
   xmlns="http://www.w3.org/2000/svg"
   version="1.1"
   width="40"
   height="40"
   id="svg3343">
  <defs
     id="defs3345" />
  <metadata
     id="metadata3348">
    <rdf:RDF>
      <cc:Work
         rdf:about="">
        <dc:format>image/svg+xml</dc:format>
        <dc:type
           rdf:resource="http://purl.org/dc/dcmitype/StillImage" />
        <dc:title></dc:title>
      </cc:Work>
    </rdf:RDF>
  </metadata>
  <g
     transform="translate(0,-1012.3622)"
     id="layer1">
    <path
       d="m 23.955,1035.176 -8.1,0 0,-4.47 8.1,0 0,4.47 z m -19.4612503,-1.4412 -0.05875,16.67 11.4187503,-0.037 0,-13.3563 8.10125,0 0,13.3288 11.35,-0.038 0,-16.7775 -15.405,-13.2952 -15.4062503,13.5052 z m 27.7150003,-9.055 0,-8.4575 -4.39375,0 0,4.7324 -7.81,-6.625 0,-0.01 -0.005,0 -0.0063,0 0.0013,0.01 -18.7450002,15.8976 0,2.3737 2.31375,0.01 L 20,1018.331 l 16.435,14.28 2.315,-0.01 0,-2.3737 -6.54125,-5.5475 z"
       id="path3062"
       style="fill:#a6a5a6;fill-opacity:1;fill-rule:nonzero;stroke:none" />
  </g>
</svg>
