<?xml version="1.0" encoding="UTF-8" standalone="no"?>
<!-- Created with Inkscape (http://www.inkscape.org/) -->

<svg
   xmlns:dc="http://purl.org/dc/elements/1.1/"
   xmlns:cc="http://creativecommons.org/ns#"
   xmlns:rdf="http://www.w3.org/1999/02/22-rdf-syntax-ns#"
   xmlns:svg="http://www.w3.org/2000/svg"
   xmlns="http://www.w3.org/2000/svg"
   version="1.1"
   width="36"
   height="36"
   id="svg3343">
  <defs
     id="defs3345" />
  <metadata
     id="metadata3348">
    <rdf:RDF>
      <cc:Work
         rdf:about="">
        <dc:format>image/svg+xml</dc:format>
        <dc:type
           rdf:resource="http://purl.org/dc/dcmitype/StillImage" />
        <dc:title></dc:title>
      </cc:Work>
    </rdf:RDF>
  </metadata>
  <g
     transform="translate(0,-1016.3622)"
     id="layer1">
    <g
       transform="matrix(1.25,0,0,-1.25,32.315625,1026.7097)"
       id="g3030">
      <path
         d="m 0,0 -10.567,-6.687 0,-12.406 c 6.761,0.455 12.104,6.084 12.104,12.959 C 1.537,-3.915 0.98,-1.826 0,0 m -11.453,6.856 c -4.386,0 -8.264,-2.175 -10.616,-5.504 l 10.607,-6.886 10.64,6.866 C -3.173,4.673 -7.058,6.856 -11.453,6.856 M -22.921,-0.03 c -0.971,-1.82 -1.521,-3.898 -1.521,-6.104 0,-6.913 5.402,-12.565 12.215,-12.966 l -0.148,12.413 -10.546,6.657 z"
         id="path3032"
         style="fill:#494a4a;fill-opacity:1;fill-rule:evenodd;stroke:none" />
    </g>
  </g>
</svg>
