<?xml version="1.0" encoding="UTF-8" standalone="no"?>
<!-- Created with Inkscape (http://www.inkscape.org/) -->

<svg
   xmlns:dc="http://purl.org/dc/elements/1.1/"
   xmlns:cc="http://creativecommons.org/ns#"
   xmlns:rdf="http://www.w3.org/1999/02/22-rdf-syntax-ns#"
   xmlns:svg="http://www.w3.org/2000/svg"
   xmlns="http://www.w3.org/2000/svg"
   xmlns:sodipodi="http://sodipodi.sourceforge.net/DTD/sodipodi-0.dtd"
   xmlns:inkscape="http://www.inkscape.org/namespaces/inkscape"
   width="36"
   height="36"
   id="svg3343"
   version="1.1"
   inkscape:version="0.48.4 r9939"
   sodipodi:docname="New document 4">
  <defs
     id="defs3345" />
  <sodipodi:namedview
     id="base"
     pagecolor="#ffffff"
     bordercolor="#666666"
     borderopacity="1.0"
     inkscape:pageopacity="0.0"
     inkscape:pageshadow="2"
     inkscape:zoom="7.9195959"
     inkscape:cx="15.471828"
     inkscape:cy="18.653868"
     inkscape:document-units="px"
     inkscape:current-layer="layer1"
     showgrid="false"
     inkscape:window-width="1207"
     inkscape:window-height="683"
     inkscape:window-x="2899"
     inkscape:window-y="44"
     inkscape:window-maximized="0" />
  <metadata
     id="metadata3348">
    <rdf:RDF>
      <cc:Work
         rdf:about="">
        <dc:format>image/svg+xml</dc:format>
        <dc:type
           rdf:resource="http://purl.org/dc/dcmitype/StillImage" />
        <dc:title></dc:title>
      </cc:Work>
    </rdf:RDF>
  </metadata>
  <g
     inkscape:label="Layer 1"
     inkscape:groupmode="layer"
     id="layer1"
     transform="translate(0,-1016.3622)">
    <g
       id="g3026"
       transform="matrix(1.25,0,0,-1.25,13.588125,1026.6422)">
      <path
         d="M 0,0 10.587,-6.176 0,-12.352 0,0 z m 3.529,-17.646 c -6.334,0 -11.47,5.135 -11.47,11.47 0,6.335 5.136,11.47 11.47,11.47 6.335,0 11.47,-5.135 11.47,-11.47 0,-6.335 -5.135,-11.47 -11.47,-11.47 m 0,25.587 c -7.797,0 -14.116,-6.32 -14.116,-14.117 0,-7.797 6.319,-14.117 14.116,-14.117 7.797,0 14.117,6.32 14.117,14.117 0,7.797 -6.32,14.117 -14.117,14.117"
         style="fill:#494a4a;fill-opacity:1;fill-rule:nonzero;stroke:none"
         id="path3028"
         inkscape:connector-curvature="0" />
    </g>
  </g>
</svg>
