<?xml version="1.0" encoding="UTF-8" standalone="no"?>
<!-- Created with Inkscape (http://www.inkscape.org/) -->

<svg
   xmlns:dc="http://purl.org/dc/elements/1.1/"
   xmlns:cc="http://creativecommons.org/ns#"
   xmlns:rdf="http://www.w3.org/1999/02/22-rdf-syntax-ns#"
   xmlns:svg="http://www.w3.org/2000/svg"
   xmlns="http://www.w3.org/2000/svg"
   version="1.1"
   width="40"
   height="40"
   id="svg3343">
  <defs
     id="defs3345" />
  <metadata
     id="metadata3348">
    <rdf:RDF>
      <cc:Work
         rdf:about="">
        <dc:format>image/svg+xml</dc:format>
        <dc:type
           rdf:resource="http://purl.org/dc/dcmitype/StillImage" />
        <dc:title></dc:title>
      </cc:Work>
    </rdf:RDF>
  </metadata>
  <g
     transform="translate(0,-1012.3622)"
     id="layer1">
    <path
       d="m 12.0975,1040.3941 15.8875,0 0,7.945 -15.8875,0 0,-7.945 z m 15.8875,-9.7537 -15.8875,0 0,-14.25 15.8875,0 0,14.25 z m 10.765,0.5937 c 0,-2.325 -1.885,-4.2087 -4.20875,-4.2087 l -4.45,0 0,-12.7413 -20.0975002,0 0,12.7413 -4.535,0 c -2.325,0 -4.20875,1.8837 -4.20875,4.2087 l 0,14.205 8.74375,0 0,5.0012 20.0975002,0 0,-1.05 0,-3.9512 8.65875,0 0,-14.205 z"
       id="path3122"
       style="fill:#848485;fill-opacity:1;fill-rule:nonzero;stroke:none" />
  </g>
</svg>
