<?xml version="1.0" encoding="UTF-8" standalone="no"?>
<!-- Created with Inkscape (http://www.inkscape.org/) -->

<svg
   xmlns:dc="http://purl.org/dc/elements/1.1/"
   xmlns:cc="http://creativecommons.org/ns#"
   xmlns:rdf="http://www.w3.org/1999/02/22-rdf-syntax-ns#"
   xmlns:svg="http://www.w3.org/2000/svg"
   xmlns="http://www.w3.org/2000/svg"
   version="1.1"
   width="40"
   height="40"
   id="svg3343">
  <defs
     id="defs3345" />
  <metadata
     id="metadata3348">
    <rdf:RDF>
      <cc:Work
         rdf:about="">
        <dc:format>image/svg+xml</dc:format>
        <dc:type
           rdf:resource="http://purl.org/dc/dcmitype/StillImage" />
        <dc:title></dc:title>
      </cc:Work>
    </rdf:RDF>
  </metadata>
  <g
     transform="translate(0,-1012.3622)"
     id="layer1">
    <g
       transform="matrix(1.25,0,0,-1.25,27.606248,1015.2257)"
       id="g3072">
      <path
         d="M 0,0 C -0.02,0.013 -0.033,0.029 -0.055,0.038 -1.849,0.824 -3.827,1.27 -5.908,1.29 l -0.019,0 -0.009,0 C -6.266,1.293 -6.591,1.28 -6.915,1.26 -7.142,1.247 -7.366,1.225 -7.591,1.202 -7.626,1.198 -7.661,1.196 -7.697,1.193 l 0,-0.003 c -2.625,-0.287 -5.054,-1.244 -7.094,-2.713 l -1.466,2.162 c -0.087,0.127 -0.239,0.187 -0.389,0.156 -0.15,-0.031 -0.264,-0.149 -0.292,-0.301 l -0.911,-5.022 -0.64,-3.544 c -0.022,-0.115 0.01,-0.229 0.087,-0.316 0.071,-0.081 0.172,-0.127 0.279,-0.129 0.008,0 0.016,0.002 0.023,0.002 l 3.983,0.211 4.484,0.239 c 0.152,0.008 0.281,0.104 0.333,0.248 0.052,0.14 0.016,0.299 -0.096,0.401 l -1.85,1.745 c 1.159,0.753 2.489,1.258 3.919,1.448 l 0.003,-0.042 c 0.436,0.056 0.88,0.093 1.334,0.088 5.315,-0.052 9.58,-4.404 9.527,-9.719 -0.053,-5.314 -4.404,-9.58 -9.719,-9.527 -5.314,0.054 -9.58,4.405 -9.527,9.72 0.004,0.464 0.054,0.916 0.121,1.361 l -5.126,1.936 c -0.228,-1.016 -0.359,-2.069 -0.37,-3.153 -0.083,-8.285 6.565,-15.067 14.85,-15.149 8.284,-0.082 15.066,6.565 15.148,14.85 C 8.976,-7.687 5.301,-2.357 0,0"
         id="path3074"
         style="fill:#a6a5a6;fill-opacity:1;fill-rule:nonzero;stroke:none" />
    </g>
  </g>
</svg>
