<?xml version="1.0" encoding="UTF-8" standalone="no"?>
<!-- Created with Inkscape (http://www.inkscape.org/) -->

<svg
   xmlns:dc="http://purl.org/dc/elements/1.1/"
   xmlns:cc="http://creativecommons.org/ns#"
   xmlns:rdf="http://www.w3.org/1999/02/22-rdf-syntax-ns#"
   xmlns:svg="http://www.w3.org/2000/svg"
   xmlns="http://www.w3.org/2000/svg"
   version="1.1"
   width="40"
   height="40"
   id="svg3343">
  <defs
     id="defs3345" />
  <metadata
     id="metadata3348">
    <rdf:RDF>
      <cc:Work
         rdf:about="">
        <dc:format>image/svg+xml</dc:format>
        <dc:type
           rdf:resource="http://purl.org/dc/dcmitype/StillImage" />
        <dc:title></dc:title>
      </cc:Work>
    </rdf:RDF>
  </metadata>
  <g
     transform="translate(0,-1012.3622)"
     id="layer1">
    <g
       transform="matrix(1.25,0,0,-1.25,20.000085,1034.423)"
       id="g3064">
      <path
         d="m 0,0 c -3.587,0 -6.494,2.905 -6.494,6.493 0,3.587 2.907,6.493 6.494,6.493 3.586,0 6.493,-2.906 6.493,-6.493 C 6.493,2.905 3.586,0 0,0 m 0.17,16.644 0,0.004 C 0.111,16.649 0.057,16.647 0,16.645 c -0.058,0.002 -0.112,0.004 -0.17,0.003 l 0,-0.004 c -8.038,-0.117 -9.555,-6.965 -9.4,-9.424 0.154,-2.649 1.635,-6 4.519,-9.896 2.158,-2.917 3.473,-4.777 3.49,-7.368 l 0,-1.754 c 0,-0.858 0.695,-1.553 1.553,-1.553 l 0.008,0 0.008,0 c 0.857,0 1.552,0.695 1.552,1.553 l 0,1.754 C 1.447,-8.332 2.892,-5.593 5.051,-2.676 7.933,1.22 9.414,4.571 9.57,7.22 9.724,9.679 8.205,16.527 0.17,16.644 M 0,10.078 c -1.981,0 -3.586,-1.604 -3.586,-3.585 0,-1.981 1.605,-3.585 3.586,-3.585 1.979,0 3.583,1.604 3.583,3.585 0,1.981 -1.604,3.585 -3.583,3.585"
         id="path3066"
         style="fill:#555455;fill-opacity:1;fill-rule:nonzero;stroke:none" />
    </g>
  </g>
</svg>
