<?xml version="1.0" encoding="UTF-8" standalone="no"?>
<!-- Created with Inkscape (http://www.inkscape.org/) -->

<svg
   xmlns:dc="http://purl.org/dc/elements/1.1/"
   xmlns:cc="http://creativecommons.org/ns#"
   xmlns:rdf="http://www.w3.org/1999/02/22-rdf-syntax-ns#"
   xmlns:svg="http://www.w3.org/2000/svg"
   xmlns="http://www.w3.org/2000/svg"
   version="1.1"
   width="26"
   height="26"
   id="svg3343">
  <defs
     id="defs3345" />
  <metadata
     id="metadata3348">
    <rdf:RDF>
      <cc:Work
         rdf:about="">
        <dc:format>image/svg+xml</dc:format>
        <dc:type
           rdf:resource="http://purl.org/dc/dcmitype/StillImage" />
        <dc:title></dc:title>
      </cc:Work>
    </rdf:RDF>
  </metadata>
  <g
     transform="translate(0,-1026.3622)"
     id="layer1">
    <g
       transform="matrix(1.25,0,0,-1.25,20.76,1035.3122)"
       id="g3142">
      <path
         d="m 0,0 c 0.006,-0.14 0.009,-0.28 0.009,-0.422 0,-4.307 -3.222,-9.273 -9.113,-9.273 -1.809,0 -3.493,0.539 -4.91,1.464 0.25,-0.03 0.505,-0.045 0.764,-0.045 1.5,0 2.881,0.52 3.977,1.395 -1.401,0.026 -2.584,0.969 -2.992,2.263 0.196,-0.038 0.396,-0.058 0.603,-0.058 0.292,0 0.575,0.04 0.843,0.114 -1.464,0.3 -2.569,1.617 -2.569,3.196 0,0.014 0,0.027 10e-4,0.041 0.432,-0.245 0.926,-0.391 1.45,-0.408 -0.859,0.585 -1.425,1.582 -1.425,2.713 0,0.597 0.158,1.157 0.434,1.638 1.581,-1.972 3.94,-3.269 6.602,-3.405 -0.055,0.239 -0.083,0.488 -0.083,0.743 0,1.8 1.435,3.259 3.203,3.259 0.922,0 1.754,-0.396 2.338,-1.029 0.731,0.146 1.416,0.418 2.035,0.791 C 0.927,2.216 0.419,1.577 -0.242,1.173 0.406,1.252 1.024,1.427 1.598,1.686 1.169,1.033 0.625,0.459 0,0 m 0.291,6.508 -12.997,0 c -1.788,0 -3.25,-1.463 -3.25,-3.25 l 0,-12.997 c 0,-1.788 1.462,-3.249 3.25,-3.249 l 12.997,0 c 1.787,0 3.249,1.461 3.249,3.249 l 0,12.997 c 0,1.787 -1.462,3.25 -3.249,3.25"
         id="path3144"
         style="fill:#858586;fill-opacity:1;fill-rule:nonzero;stroke:none" />
    </g>
  </g>
</svg>
