<?xml version="1.0" encoding="UTF-8" standalone="no"?>
<!-- Created with Inkscape (http://www.inkscape.org/) -->

<svg
   xmlns:dc="http://purl.org/dc/elements/1.1/"
   xmlns:cc="http://creativecommons.org/ns#"
   xmlns:rdf="http://www.w3.org/1999/02/22-rdf-syntax-ns#"
   xmlns:svg="http://www.w3.org/2000/svg"
   xmlns="http://www.w3.org/2000/svg"
   version="1.1"
   width="26"
   height="26"
   id="svg3343">
  <defs
     id="defs3345" />
  <metadata
     id="metadata3348">
    <rdf:RDF>
      <cc:Work
         rdf:about="">
        <dc:format>image/svg+xml</dc:format>
        <dc:type
           rdf:resource="http://purl.org/dc/dcmitype/StillImage" />
        <dc:title></dc:title>
      </cc:Work>
    </rdf:RDF>
  </metadata>
  <g
     transform="translate(0,-1026.3622)"
     id="layer1">
    <g
       transform="matrix(1.25,0,0,-1.25,20.160625,1037.6041)"
       id="g3146">
      <path
         d="m 0,0 c -0.647,-3.642 -4.259,-6.726 -5.346,-7.431 -1.087,-0.704 -2.078,0.282 -2.437,1.028 -0.412,0.851 -1.646,5.463 -1.968,5.845 -0.323,0.381 -1.292,-0.382 -1.292,-0.382 l -0.471,0.617 c 0,0 1.969,2.35 3.466,2.644 1.588,0.311 1.586,-2.438 1.967,-3.966 0.37,-1.476 0.618,-2.321 0.94,-2.321 0.323,0 0.94,0.823 1.616,2.086 0.677,1.264 -0.029,2.38 -1.351,1.586 C -4.347,2.879 0.646,3.642 0,0 m 0.77,8.342 -12.997,0 c -1.787,0 -3.25,-1.463 -3.25,-3.25 l 0,-12.997 c 0,-1.788 1.463,-3.25 3.25,-3.25 l 12.997,0 c 1.787,0 3.25,1.462 3.25,3.25 l 0,12.997 c 0,1.787 -1.463,3.25 -3.25,3.25"
         id="path3148"
         style="fill:#858586;fill-opacity:1;fill-rule:nonzero;stroke:none" />
    </g>
  </g>
</svg>
