<?xml version="1.0" encoding="UTF-8" standalone="no"?>
<!-- Created with Inkscape (http://www.inkscape.org/) -->

<svg
   xmlns:dc="http://purl.org/dc/elements/1.1/"
   xmlns:cc="http://creativecommons.org/ns#"
   xmlns:rdf="http://www.w3.org/1999/02/22-rdf-syntax-ns#"
   xmlns:svg="http://www.w3.org/2000/svg"
   xmlns="http://www.w3.org/2000/svg"
   version="1.1"
   width="36"
   height="36"
   id="svg3343">
  <defs
     id="defs3345" />
  <metadata
     id="metadata3348">
    <rdf:RDF>
      <cc:Work
         rdf:about="">
        <dc:format>image/svg+xml</dc:format>
        <dc:type
           rdf:resource="http://purl.org/dc/dcmitype/StillImage" />
        <dc:title></dc:title>
      </cc:Work>
    </rdf:RDF>
  </metadata>
  <g
     transform="translate(0,-1016.3622)"
     id="layer1">
    <g
       transform="matrix(1.25,0,0,-1.25,30.364375,1037.7866)"
       id="g3022">
      <path
         d="m 0,0 c 0,0 -0.153,-0.153 -0.612,-0.383 -0.459,-0.231 -4.517,-1.455 -4.364,2.067 0.306,0.842 2.45,5.283 -1.685,7.045 0.459,0.842 1.914,1.071 1.914,1.071 l -2.603,4.211 c 0,0 8.192,-0.995 9.035,-9.417 0,-1.301 -0.076,-4.747 -0.843,-6.661 C 0.153,-0.614 0,0 0,0 m -13.169,-8.499 c -0.919,-0.077 -2.067,-0.307 -2.373,3.216 -0.46,0.765 -1.302,0.995 -2.144,1.149 -0.843,0.152 -0.996,1.913 0,3.292 -0.843,0.918 -4.441,4.057 -3.676,7.196 0.766,2.451 1.991,5.59 6.279,7.581 1.685,-1.608 2.833,-2.527 0.536,-3.752 -0.919,-0.536 -1.148,-1.837 0,-1.991 0,0 0.229,1.149 0.918,0.842 0.69,-0.305 2.297,-1.914 1.073,-1.99 -1.226,-0.077 -1.762,-0.612 -2.297,-1.302 -0.536,-0.689 -1.532,-2.449 -2.221,-2.527 -0.689,-0.076 -0.612,1.073 -1.225,1.073 -0.613,0 -1.225,0 -0.919,-1.915 0.383,-1.071 3.676,-3.521 11.026,-5.819 0.077,-0.383 -0.843,-4.67 -4.977,-5.053 m 3.752,19.984 c 0.229,-0.459 0.076,-1.379 -1.225,-1.838 l -1.685,3.292 c 0,0 2.297,0.69 2.91,-1.454 m -0.474,4.845 c -7.506,0 -13.591,-6.085 -13.591,-13.591 0,-7.506 6.085,-13.59 13.591,-13.59 7.506,0 13.59,6.084 13.59,13.59 0,7.506 -6.084,13.591 -13.59,13.591"
         id="path3024"
         style="fill:#494a4a;fill-opacity:1;fill-rule:nonzero;stroke:none" />
    </g>
  </g>
</svg>
